<?xml version="1.0" encoding="UTF-8"?>
<svg id="Layer_1" data-name="Layer 1" xmlns="http://www.w3.org/2000/svg" viewBox="0 0 1563.49 663.42">
  <defs>
    <style>
      .cls-1 {
        fill: #fff;
      }

      .cls-2 {
        font-family: MyriadPro-Regular, 'Myriad Pro';
        font-size: 100px;
      }

      .cls-3 {
        font-family: ArialMT, Arial;
        font-size: 220px;
      }

      .cls-3, .cls-4 {
        isolation: isolate;
      }

      .cls-5 {
        letter-spacing: -.02em;
      }

      .cls-6 {
        letter-spacing: -.01em;
      }

      .cls-7 {
        letter-spacing: -.04em;
      }
    </style>
  </defs>
  <g id="Layer_1-2" data-name="Layer 1">
    <g class="cls-4">
      <text class="cls-3" transform="translate(627.02 323.16)"><tspan x="0" y="0">A</tspan><tspan class="cls-7" x="146.74" y="0">L</tspan></text>
      <text class="cls-3" transform="translate(884.62 329.49)"><tspan x="0" y="0">K</tspan><tspan class="cls-5" x="146.74" y="0">Y</tspan></text>
      <text class="cls-3" transform="translate(1135.62 329.49)"><tspan x="0" y="0">RIE </tspan></text>
      <text class="cls-3" transform="translate(655.21 534.85)"><tspan x="0" y="0">THREAD</tspan></text>
      <text class="cls-2" transform="translate(577.16 638.42)"><tspan x="0" y="0">- </tspan><tspan class="cls-6" x="51.9" y="0">C</tspan><tspan x="108.8" y="0">oding</tspan></text>
    </g>
  </g>
  <g id="Layer_4" data-name="Layer 4">
    <path d="M1335.91,477.05c-3.87,59.87-7.73,119.74-11.6,179.62l-10.29-180.36"/>
    <path d="M1314.37,389.35l-13.84-358.99c-2.14-17.22,12.55-30.9,26.9-30.34,13.68.53,26.71,14.01,24.53,30.34-5.23,120.03-10.47,240.06-15.7,360.09"/>
    <path class="cls-1" d="M1317.79,30.94c0-4.65,3.83-8.49,8.49-8.49s8.49,3.83,8.49,8.49c-.7,11.06-5.1,18.57-8.49,18.57s-7.79-7.51-8.49-18.57Z"/>
  </g>
  <g id="Layer_3" data-name="Layer 3">
    <g>
      <path d="M301.26,513.78c-108.36-242.59-81.08-187.84-165.41-271.71C39.51,179,46.45,133.25,31.89,63.24c-6.24,71.4-14.56,131.68,94.26,203.78,38.56,34.57,62.93,60.78,79.7,96.8,26.88,57.69,53.1,117.74,95.42,219.25,40.21-101.18,90.74-210.81,103.74-232.2,41.1-67.65,80.4-89.63,116.91-119.56,56.38-56.96,49.32-73.6,50.6-168.07-15.94,79.02-8.32,113.67-131,199.61-23.99,21.73-64.46,58.55-141.46,255.06"/>
      <path d="M409.63,362.68c29.35-19.64,54.3-34.43,91.04-44.59,49.9-23.11,87.34-33.27,101.65-104.89-7.39,11.55-23.07,55.78-104.89,80.4-35.58,11.09-77.63,38.58-87.79,69.08h0Z"/>
      <path d="M192.22,360.6c-18.26-14.09-26.11-20.57-89.63-42.5-36.97-13.18-88.25-33.27-102.58-104.89,7.39,11.55,23.14,54.68,105.82,80.4,35.58,11.09,76.25,36.51,86.41,67h-.02Z"/>
      <path d="M199.15,382.32c-33.5-14.33-44.92-13.4-73.46-18.03-40.89-9.01-67.23-10.39-98.96-68.61,17.4,18.03,51.6,34.43,101.04,45.75,29.12,6.75,51.39,19.18,71.4,40.89h-.02Z"/>
      <path d="M404.74,382.41c33.5-14.33,44.92-13.4,73.46-18.03,40.89-9.01,67.23-10.39,98.96-68.61-17.4,18.03-51.6,34.43-101.04,45.75-29.12,6.75-51.39,19.18-71.4,40.89h.02Z"/>
      <path d="M392.3,403.35c25.93-12.63,47.53-16.47,62.85-17.56,17.35-1.23,29.36.88,49.9-3.47,16.7-3.54,29.77-9.37,38.35-13.86-9.08,9.02-24.77,21.88-47.43,28.4-6.32,1.82-12.28,2.89-17.71,3.49-3.92.16-8.32.32-12.25.46-24.63.91-49.2,1.77-73.71,2.54h0Z"/>
      <path d="M210.37,404.91c-25.93-12.63-47.53-16.47-62.85-17.56-17.35-1.23-29.36.88-49.9-3.47-16.7-3.54-29.77-9.37-38.35-13.86,9.08,9.02,24.77,21.88,47.43,28.4,6.32,1.82,12.28,2.89,17.71,3.49,3.92.16,8.32.32,12.25.46,24.63.91,49.2,1.77,73.71,2.54Z"/>
      <path d="M210.37,412.23c-7.6,4.75-16.85,9.65-27.72,13.86-22.57,8.73-43.01,10.86-57.54,11.09,9.72,3.57,24.41,7.25,41.59,4.85,3.75-.53,7.24-1.28,10.44-2.17,3.78-.56,11.63-2.24,19.36-8.23,9.06-7.01,12.63-15.82,13.86-19.41v.02Z"/>
      <path d="M390.23,412.23c7.6,4.75,16.85,9.65,27.72,13.86,22.57,8.73,43.01,10.86,57.54,11.09-9.72,3.57-24.41,7.25-41.59,4.85-3.75-.53-7.24-1.28-10.44-2.17-3.78-.56-11.63-2.24-19.36-8.23-9.06-7.01-12.63-15.82-13.86-19.41v.02Z"/>
    </g>
  </g>
</svg>